<?xml version="1.0" encoding="utf-8"?>
<!-- Generator: Adobe Illustrator 21.1.0, SVG Export Plug-In . SVG Version: 6.00 Build 0)  -->
<svg version="1.1" id="Layer_1" xmlns="http://www.w3.org/2000/svg" xmlns:xlink="http://www.w3.org/1999/xlink" x="0px" y="0px"
	 viewBox="0 0 299.7 194.1" style="enable-background:new 0 0 299.7 194.1;" xml:space="preserve">
<style type="text/css">
	.st0{fill:#739599;}
	.st1{fill:#4A6566;}
	.st2{fill:#323A3A;}
	.st3{fill:#556060;}
	.st4{fill:#EFEAAB;}
</style>
<g>
	<g id="XMLID_4_">
		<path class="st0" d="M95,173.5c-1,1-2,1.8-3.2,2.6c-8.1,5.6-18.3,6.3-18.8,4.9c-0.7-1.8,15.2-8.8,14.7-9.7
			c-0.4-0.9-14.1,5.5-14.4,4.8c-0.3-0.5,7-6.2,16.1-6.7c1.6-0.1,4.5-0.1,4.5-0.3s-7.2,0-7.5-1.3c-0.2-1.1,3.3-2.6,7-4.3
			c2.4-1.1,2.5-1,4-1.7c2.6-1.3,4.5-2.6,6-3.7c1.6-1.3,2.5-2.1,2.8-1.8c0.7,0.5-1.9,4.7-2.2,5.2C100.9,166.4,98.4,170.2,95,173.5z
			 M114.8,161.8c-1.7,7.8-12.2,15.6-21.2,22.8c-0.3,0.2-0.6,0.5-0.9,0.7c-1.1,0.9-2.8,2.2-5.5,3.4c-1.5,0.7-6.5,2.7-12.7,1.7
			c-7.3-1.1-16.5-6.2-16.3-11.3c0.2-3.2,3.8-3.7,13.5-10.6c7.7-5.6,7.9-7.2,16.8-13.6c1.3-1,2.5-1.7,3.6-2.5c0.3,0,0.7,0,1,0
			c6.7,0.2,6.7-0.3,9.2,0.4c0.6,0.2,1.6,0.4,2.9,1c2.7,1,6.3,2.9,8.5,6.5C113.9,160.8,114.6,161.5,114.8,161.8z"/>
		<path class="st1" d="M93.6,184.5c0.3,0,0.7,0.1,1,0.1c2.2,0.2,6.9,0.4,12-1.9c0-0.5,0-1,0.1-1.4c0.3-2.3,1.2-4,1.9-3.9
			c0.7,0.1,1,1.7,0.8,3.8c0.1,0,0.1-0.1,0.2-0.1c0.8-0.5,1.6-1.2,2.7-2c-0.1-0.8-0.1-1.7,0.1-2.7c0.3-2.3,1.2-4,1.9-3.9
			c0.7,0.1,1,1.5,0.9,3.5l0.1-0.1c1.6-2.5,2.3-5,2.6-7.3c-2.1-1.7-2-4-3.4-6.8C112.5,169.3,102.6,177.3,93.6,184.5z"/>
		<path class="st0" d="M131.4,57.6c-3-6.9-5.8-11.9-6.5-13.4c-3.9-7.3-7.4-13.7-8.1-21.9c-0.2-2.2-0.2-4.5-1-4.6
			c-1.3-0.4-6.4,8.2-5.6,14.4c0.2,0.5,1.6,3.6,2.1,4.6c0.3,0.6-0.1,1.2-0.2,1.3c-0.2,0.1-0.7-0.2-1.2-0.6c1.9,3.7-1,1.6-1.3,0.6
			c0.1,1.1,0.3,3,0.4,3.9c0.4,0.6,1,1.4,1.5,2.1c1.5,2.8,4,7.3,3.3,6.1c-1-0.8-2.3-2.3-3.9-4.3c0.5,1.7,1,2.9,1.2,3.5
			c1.4,3.7,3.4,8.5,8.3,11.6c1.9,0.2,3.6,0.4,5.2,0.5c0.1,0.1,0.2,0.2,0.2,0.2c2.1,0.1,4.2,0.2,7.1,0.2
			C132.6,60.7,132.2,59.4,131.4,57.6z"/>
		<path class="st1" d="M111.7,44.2c0.9,2,1.8,3.9,2.9,5.8c0,0.1,0.1,0.1,0.1,0.2c2.7,4.3,5.2,6.2,8.7,8.8c0.2,0.2,1.8,1.3,2.4,1.3
			c0.1,0,0.2-0.1,0.2-0.2c0.1-0.7-1.9-2.5-4.2-7.4c-0.7-1.3-0.6-1.4-1.6-3.6c-1.5-3.3-3-6.3-3.4-6c-0.5,0.6,1.3,7.6,1.2,7.6
			c-0.1,0-0.8-2.8-1.2-4.4c-2.3-8.7-6.3-14.6-6.4-14.3c-0.1,0.2,0.7,2,1.7,4.3c0.1,0.2,0.2,0.4,0.3,0.7c1.5,3.6,3.5,7.8,3.3,8.2
			c-0.2,0.3-2.3-3.9-4.2-7.6l0,0c-0.7-1.2-1.3-2.3-1.7-3.2c-0.7-1.2-1.3-1.8-1.3-1.6c-0.1,0.1-0.1,0.6,0.1,1.3c0.2,1.2,0.7,3,1.3,5
			C110.1,40.6,110.8,42.4,111.7,44.2z"/>
		<path class="st1" d="M103.4,158c1.6-1.3,2.5-2.1,2.8-1.8c0.7,0.5-1.9,4.7-2.2,5.2c-3.1,5-5.6,8.9-8.9,12.1c-1,1-2,1.8-3.2,2.6
			c-8.1,5.6-18.3,6.3-18.8,4.9c-0.7-1.8,15.2-8.8,14.7-9.7c-0.4-0.9-14.1,5.5-14.4,4.8c-0.3-0.5,7-6.2,16.1-6.7
			c1.6-0.1,4.5-0.1,4.5-0.3s-7.2,0-7.5-1.3c-0.2-1.1,3.3-2.6,7-4.3c2.4-1.1,2.5-1,4-1.7C100,160.4,102,159.1,103.4,158z"/>
		<path class="st0" d="M92.8,47.6c-0.3-0.2-0.4-0.3-0.4-0.3C78.3,38,76.9,37.9,67.1,31.1c-9.4-6.5-10.3-7.9-21.2-15.6
			C31.5,5.5,24.3,0.4,21.5,1.9c-2.5,1.4-3.6,6.2-3.2,12.4c3.1,4,4.9,7.7,4.1,8.3c-0.5,0.3-1.7-0.5-3.3-2.1
			C20.9,29,25,38.8,31.9,46.3c3.1,3.5,9.5,7.4,22.1,15.5c0.9,0.5,6.7,3.7,18.5,10c1.3,0.7,2.4,1.3,3.5,1.8c-1.6-0.4-3.3-0.7-4.9-1.1
			c0,0-15.2-3.5-28-8.7c-20.6-8.4-25.2-18.7-30.6-16c-6,2.9-5.9,17.6-2.1,29.8c0.9,1,1.7,2,2.6,3.2c3.4,4.4,5.4,8.7,4.4,9.3
			c-0.5,0.3-1.4-0.2-2.8-1.3c1.9,4.1,4.7,8.4,9.5,10.9c1.9,1,4.1,1.4,8.6,2.3c7.8,1.5,11.1,1.2,20.8,1.9c7.8,0.7,11.7,1.3,14.2,1.5
			c-2.7,0.3-6.4,1.3-10.9,2.1c-6.2,1.2-12,1.5-23.7,2.2c-0.2,0-0.4,0-0.6,0c2.6,1.9,4.8,3.9,4.5,4.4c-0.4,0.6-4.8-1.5-9.5-4.1
			c-7.1,0.4-11.3,0.5-15.1,0c-6.8-0.9-9.2-2.3-10.8-0.8c-3.4,3.3,1.9,15.8,9.4,23.8c2.1,2.2,7.8,8.1,17.1,10.3
			c5.5,1.3,9.7,0.7,18.2-0.7c9.1-1.4,15.5-2.5,18.8-6.6c-0.2-3.6,0-8.3,1.3-14.7c0.9-4.8,1.8-10.2,3.7-15.9c-0.1,0-0.3,0-0.4-0.1
			c0.2,0,0.3-0.1,0.4-0.1c2.4-8,6.3-16.6,13.6-25.1c1-1.2,2-2.4,3.3-3.8l0.1-0.1c4.3-4.6,10.3-10,18.8-13c2.3-0.8,4.2-1.5,6-2
			c-3.9-3.6-11.6-8.9-16.2-11.9c-0.7,5-2,8.8-2.9,8.8c-0.4-0.1-0.6-0.8-0.8-2c-0.2-1.7-0.1-4.4,0.4-7.5
			C92.7,48.6,92.7,48.1,92.8,47.6z"/>
		<path class="st1" d="M12.4,65.5c-0.7,1.9,11.3,16.4,25.2,23.9c9,4.8,16.3,5.3,26.4,5.9c0.7,0,7.3,0.4,7-1
			c-0.3-1.3-6.2-2.3-14.6-8.5c-2.4-1.7-2.3-1.9-6-4.6c-5.7-4.1-10.9-8-11.5-6.8c-1,1.5,7.4,12.1,7.2,12.3c-0.1,0.1-3.4-4.2-5.3-6.5
			C30.3,67.1,17.2,61,17,61.8c-0.2,1.1,20.7,16.3,20.4,17.5C37,80.7,13.3,62.9,12.4,65.5z"/>
		<path class="st1" d="M34.7,125.5c0.2,1.2-22.5-1.9-22.4,0.4c0.1,1.7,13,7.4,25.5,6.9c8.1-0.3,13.7-3.1,21.4-6.9
			c0.5-0.3,5.6-2.8,5-3.8c-0.6-0.9-5.2,0.9-13.3,0c-2.3-0.3-2.2-0.4-5.8-0.9c-5.4-0.7-10.3-1.3-10.5-0.2c-0.3,1.5,8.9,5.9,8.8,6.1
			c-0.1,0.2-3.8-1.6-5.8-2.6c-11.5-5.1-23-4-22.9-3.4C14.8,122.1,34.6,124.4,34.7,125.5z"/>
		<path class="st1" d="M27.9,18.6c-0.8,2.2,11.9,22.1,27.2,33.9c10,7.6,18.2,9.6,29.4,12.2c0.8,0.2,8.2,1.9,8,0.2
			c-0.2-1.6-6.8-4-16.1-13.1c-2.6-2.6-2.5-2.8-6.5-6.7c-6.2-6.2-11.8-11.7-12.7-10.6c-1.2,1.7,7.8,16.2,7.5,16.3
			c-0.2,0.1-3.7-5.8-5.7-8.9c-11.3-17.8-25.8-27.8-26-26.8c-0.3,1.3,22.5,23.8,22.1,25.2C54.8,41.9,29,15.8,27.9,18.6z"/>
		<path class="st0" d="M85.7,152.2c-3,3.7-4.5,5.4-5.8,6.7C66.9,171.7,52,171.8,52,171.8c-2,0-7.5,0-13.7-2.8
			c-2.3-1.1-3.9-2.1-5.9-3.5c-3.2-2.1-12.6-8.6-11.5-11.6c0.7-1.9,4.8-1,11.8-1.8c0.8-0.1,19-2.5,32.8-13.3c0.7,4.2,2.1,6.2,3.1,7.1
			c2.6,2.7,6.3,4,8.7,4.8C79.9,151.6,82.4,152,85.7,152.2z M40.3,164.8c-4.9-0.1-8.7-1.3-8.8-2.1c-0.2-1.8,16.2-3.5,16-4.3
			c0-0.2-0.7-0.2-1.7-0.2c-3.2,0-9.9,0.7-12.1,0.6c-0.4,0-0.7-0.1-0.7-0.2c-0.1-0.4,4.4-2.1,10.3-2.1c1.9,0,4,0.2,6.3,0.7
			c0.2,0,0.4,0.1,0.6,0.2c1.5,0.4,3.7,1,3.7,0.9s-2.3-0.8-4.2-1.6c-1.3-0.6-2.4-1.2-2.4-1.7c0.1-1,3.7-1.3,7.5-1.7
			c0.2,0,0.5-0.1,0.7-0.1c0.1,0,0.1,0,0.2,0c1.7-0.2,1.8-0.1,3.3-0.3c0.6-0.1,1.1-0.2,1.5-0.2c4.8-0.9,7.5-2.7,7.9-2.1
			c0.1,0.1,0,0.3-0.1,0.6c-0.6,1.1-3,3.1-3.3,3.4c-5.3,4.4-9,7.7-14.8,9.3C46.8,164.6,43.3,164.9,40.3,164.8z"/>
		<path class="st1" d="M68.2,151c0.1-0.2,0.2-0.4,0.1-0.6c-0.4-0.5-3.1,1.3-7.9,2.1c-0.5,0.1-1,0.2-1.5,0.2
			c-1.4,0.2-1.6,0.1-3.3,0.3c-0.1,0-0.1,0-0.2,0c-0.2,0-0.4,0-0.7,0.1c-3.8,0.4-7.4,0.9-7.5,1.7c0,0.6,1.1,1.2,2.4,1.7
			c1.9,0.8,4.2,1.4,4.2,1.6c0,0.1-2.1-0.5-3.7-0.9c-0.2-0.1-0.4-0.1-0.6-0.2c-2.1-0.5-4.2-0.7-6.3-0.7c-5.9,0-10.4,1.7-10.3,2.1
			c0,0.1,0.3,0.1,0.7,0.2c2.2,0.1,8.9-0.6,12.1-0.6c1.1,0,1.7,0.1,1.7,0.2c0.2,0.9-16.2,2.5-16,4.3c0.1,0.9,3.8,2,8.8,2.1
			c3,0.1,6.4-0.2,9.7-1.2c5.8-1.6,9.6-4.9,14.8-9.3C65.2,154.1,67.6,152,68.2,151z"/>
		<path class="st2" d="M117.6,168.3c0.2,0.1,0.4,0.3,0.6,0.4c1.4,0.9,2.9,1.1,4.3,1.3c2.2,0.3,6.3,0.8,7.7-1.4c1.3-2-0.1-5.3-2-7
			c-1.7-1.6-3-1-5.8-2.1c-4.2-1.8-6.9-5.5-8.2-7.6c-0.4-0.7-10.5-10.4-15.7-10.4c-3.9,0.1-16.5,0.2-22.1-5.6
			c-6.3-6.4-3-19.3-0.6-28.9c2.5-9.6,6.4-16.1,7.4-17.5c2.4-3.7,7.5-11.5,17.5-17.3c0.4-0.3,10.7-6,21.5-5.4
			c2.6,0.1,4.9,0.6,6.9,2.1c2.5,1.8,22.3,18,20.8,16.6c-4-3.5-6.7-19.6-8.8-23.4c-1.2-2.1-3-3.8-3.5-4.3c-1.7-1.6-3.8-2.8-3.9-2.6
			c-0.4,0.4,3.9,3.8,3.1,5.4c-0.5,1-2.3,1-3.3,0.9c-0.4,0-0.8,0-1.2,0c-2.8-0.1-5-0.1-7.1-0.2c-1.7-0.1-3.4-0.3-5.5-0.5
			c-2.9-0.4-5.4,0-8.2,0.8c-1.7,0.5-3.7,1.2-6,2c-8.6,3-14.6,8.4-18.8,13l-0.1,0.1c-1.3,1.3-2.3,2.6-3.3,3.8
			c-7.2,8.5-11.2,17-13.6,25.1c0,0.1,0,0.1,0,0.2c-1.7,5.7-2.7,11.1-3.7,15.9c-1.2,6.4-1.4,11.3-1.3,14.7c0.1,0.9,0.2,1.7,0.3,2.5
			c0.7,4.2,2.1,6.2,3.1,7.1c2.6,2.7,6.3,4,8.7,4.8c2.7,1,5.2,1.3,8.5,1.6c1.8,0.1,3.9,0.2,6.3,0.3c0.3,0,0.7,0,1,0
			c6.7,0.2,6.7-0.3,9.2,0.4c0.6,0.2,1.6,0.4,2.9,1c2.7,1,6.3,2.9,8.5,6.5c0.2,0.4,0.4,0.7,0.6,1.1
			C115.7,164.3,115.6,166.7,117.6,168.3z"/>
	</g>
</g>
<g id="XMLID_2_">
	<path class="st0" d="M195.6,163.4c-0.3-0.5-2.9-4.7-2.2-5.2c0.3-0.3,1.3,0.6,2.8,1.8c1.4,1.1,3.4,2.5,6,3.7c1.5,0.8,1.6,0.6,4,1.7
		c3.8,1.7,7.2,3.3,7,4.3c-0.3,1.4-7.5,1.2-7.5,1.3c0,0.2,2.9,0.2,4.5,0.3c9.1,0.6,16.4,6.3,16.1,6.7c-0.3,0.7-14.1-5.7-14.5-4.8
		s15.4,7.9,14.8,9.7c-0.5,1.3-10.7,0.7-18.8-4.9c-1.2-0.8-2.2-1.6-3.2-2.6C201.1,172.3,198.7,168.4,195.6,163.4z M185.9,162.5
		c2.2-3.7,5.9-5.5,8.5-6.6c1.3-0.5,2.3-0.8,2.9-1c2.5-0.7,2.5-0.2,9.3-0.4c0.4,0,0.7,0,1,0c1.1,0.7,2.3,1.5,3.6,2.5
		c8.9,6.4,9.2,8,16.9,13.6c9.6,7,13.3,7.5,13.5,10.6c0.2,5-9.1,10.1-16.4,11.3c-6.2,0.9-11.2-1.2-12.7-1.7c-2.6-1.2-4.4-2.5-5.5-3.4
		c-0.3-0.2-0.6-0.5-0.9-0.7c-9.1-7.2-19.9-14.6-21.6-22.4C184.5,164,185.6,162.9,185.9,162.5z"/>
	<path class="st1" d="M206,186.8c-0.3,0-0.6,0-0.9,0c-2.2,0.2-6.9,0.4-12.1-1.9c0-0.5,0-1-0.1-1.4c-0.3-2.3-1.2-4-1.9-4
		c-0.7,0.1-1,1.7-0.8,3.9c-0.1,0-0.1-0.1-0.2-0.1c-0.8-0.5-1.6-1.2-2.7-2c0.1-0.8,0.1-1.7-0.1-2.7c-0.3-2.3-1.2-4-1.9-4
		c-0.7,0.1-1,1.5-0.9,3.5l-0.1-0.1c-1.6-2.5-2.3-5-2.6-7.3c2.1-1.7,2-4,3.4-6.8C187.1,171.4,196.9,179.5,206,186.8z"/>
	<path class="st0" d="M189.7,43.5c-0.2-1-0.4-3.3-0.7-4c-0.5,0.4-1.5,1.2-1.9,1c-0.5-0.4,0.6-3.9,1.3-4.8c0.3-0.4,0.7-1.7,1-2
		c0.1-1.8,0.1-2.3-0.3-3.9c-1.3-5.1-4-10.9-5.3-10.5c-0.8,0.1-0.8,2.4-1,4.6c-0.7,8.3-4.1,14.7-8.1,22c-0.8,1.4-3.6,6.5-6.6,13.4
		c-0.8,1.8-1.3,3.1-1.3,4c2.9,0,5-0.1,7.1-0.2l0-0.1c1.7-0.1,3.4-0.3,5.4-0.5c4.9-3.2,6.8-8,8.3-11.7c0.2-0.6,0.7-1.7,1.2-3.5
		c-1.6,2-3,3.6-4,4.3c-1.3,0.7,0.9-2.1,2.6-5.6C188,45.5,189.2,44.2,189.7,43.5z"/>
	<path class="st1" d="M187.9,45.9c-0.9,2-1.8,4-2.9,5.8c0,0.1-0.1,0.1-0.1,0.2c-2.7,4.3-5.2,6.2-8.7,8.8c-0.2,0.2-1.8,1.3-2.4,1.3
		c-0.1,0-0.2-0.1-0.2-0.2c-0.1-0.7,1.9-2.5,4.2-7.4c0.7-1.3,0.6-1.4,1.6-3.6c1.5-3.3,3-6.4,3.4-6c0.5,0.6-1.3,7.6-1.2,7.6
		c0.1,0,0.8-2.8,1.2-4.4c2.3-8.7,6.4-14.7,6.5-14.4c0.1,0.2-0.7,2-1.7,4.3c-0.1,0.2-0.2,0.4-0.3,0.7c-1.5,3.6-3.5,7.8-3.3,8.2
		c0.2,0.3,2.3-4,4.2-7.6l0,0c0.7-1.2,1.3-2.3,1.7-3.2c0.7-1.2,1.3-1.8,1.3-1.6c0.1,0.1,0.1,0.6-0.1,1.3c-0.2,1.2-0.7,3-1.3,5
		C189.4,42.3,188.7,44.1,187.9,45.9z"/>
	<path class="st1" d="M196.2,160c-1.6-1.3-2.5-2.1-2.8-1.8c-0.7,0.5,1.9,4.7,2.2,5.2c3.1,5,5.6,9,9,12.1c1,1,2,1.8,3.2,2.6
		c8.1,5.6,18.3,6.3,18.8,4.9c0.7-1.8-15.2-8.9-14.8-9.7c0.4-0.9,14.2,5.5,14.5,4.8c0.3-0.5-7-6.2-16.1-6.7c-1.6-0.1-4.5-0.1-4.5-0.3
		c0-0.2,7.2,0,7.5-1.3c0.2-1.1-3.3-2.6-7-4.3c-2.4-1.1-2.5-1-4-1.7C199.6,162.5,197.6,161.2,196.2,160z"/>
	<path class="st0" d="M207,50.8c0.4,3,0.5,5.8,0.4,7.5c-0.1,1.2-0.4,1.9-0.8,2c-0.9,0.1-2.2-3.8-2.9-8.8c-4.4,3.1-12.2,8.4-16.2,12
		c1.7,0.5,3.7,1.2,6,2c8.6,3,14.7,8.4,18.9,13l0.1,0.1c1.3,1.3,2.3,2.6,3.3,3.8c7.2,8.5,11.2,17.1,13.6,25.2c0.1,0,0.3,0.1,0.4,0.1
		c-0.1,0-0.3,0-0.4,0.1c1.7,5.7,2.7,11.1,3.7,15.9c1.2,6.5,1.4,11.3,1.3,14.8c3.4,4.1,9.6,5.2,18.9,6.7c8.5,1.3,12.7,2,18.2,0.7
		c9.4-2.2,15-8.1,17.2-10.3c7.5-7.9,12.8-20.4,9.4-23.8c-1.5-1.5-4-0.1-10.8,0.8c-3.7,0.5-7.9,0.4-15.1,0c-4.7,2.5-9.2,4.6-9.5,4.1
		c-0.3-0.4,1.9-2.4,4.5-4.4c-0.2,0-0.4,0-0.6,0c-11.7-0.7-17.5-1.1-23.7-2.2c-4.4-0.9-8.2-1.8-10.9-2.1c2.5-0.2,6.4-0.9,14.3-1.5
		c9.7-0.8,13-0.4,20.8-1.9c4.4-0.9,6.6-1.3,8.6-2.3c4.8-2.5,7.6-6.7,9.5-10.9c-1.3,1.2-2.3,1.6-2.8,1.3c-1-0.7,1.1-4.9,4.4-9.4
		c0.9-1.2,1.7-2.2,2.6-3.2c3.8-12.2,3.8-27-2.1-29.9c-5.5-2.7-10,7.7-30.7,16c-12.8,5.2-28.1,8.7-28.1,8.7c-1.6,0.4-3.3,0.7-4.9,1.1
		c1.1-0.6,2.3-1.2,3.5-1.8c11.9-6.3,17.7-9.4,18.5-10c12.6-8.1,19-12.1,22.2-15.5c6.8-7.5,11-17.4,12.7-25.9
		c-1.5,1.5-2.8,2.4-3.3,2.1c-0.8-0.6,1.2-4.2,4.1-8.3c0.5-6.3-0.7-11.1-3.2-12.4c-2.7-1.5-10,3.5-24.5,13.7
		c-10.9,7.7-11.8,9.2-21.2,15.6C222.6,40,221.2,40,207,49.3c0,0-0.1,0.1-0.4,0.3C206.8,49.9,206.9,50.3,207,50.8z"/>
	<path class="st1" d="M287.4,67.3c0.7,1.9-11.4,16.5-25.3,23.9c-9.1,4.8-16.4,5.3-26.5,5.9c-0.7,0-7.3,0.4-7-1
		c0.3-1.3,6.2-2.3,14.7-8.5c2.4-1.7,2.3-1.9,6-4.6c5.7-4.1,10.9-8,11.6-6.8c1,1.5-7.4,12.1-7.2,12.3c0.1,0.1,3.4-4.2,5.3-6.6
		c10.6-13,23.7-19.2,23.9-18.3c0.2,1.1-20.7,16.3-20.4,17.5C262.7,82.6,286.6,64.7,287.4,67.3z"/>
	<path class="st1" d="M265,127.5c-0.2,1.2,22.6-1.9,22.5,0.4c-0.1,1.7-13,7.4-25.5,6.9c-8.1-0.3-13.7-3.1-21.4-6.9
		c-0.5-0.3-5.6-2.8-5-3.8c0.6-0.9,5.2,0.9,13.3,0c2.3-0.3,2.2-0.4,5.8-0.9c5.4-0.7,10.3-1.3,10.5-0.2c0.3,1.5-9,5.9-8.9,6.1
		c0.1,0.2,3.8-1.6,5.8-2.6c11.6-5.1,23-4,22.9-3.4C285,124,265.1,126.5,265,127.5z"/>
	<path class="st1" d="M271.9,20.4c0.8,2.2-12,22.2-27.3,33.9c-10,7.6-18.2,9.6-29.5,12.2c-0.8,0.2-8.2,1.9-8,0.2
		c0.2-1.6,6.8-4,16.1-13.1c2.6-2.6,2.5-2.8,6.6-6.7c6.2-6.2,11.9-11.8,12.7-10.6c1.2,1.7-7.8,16.2-7.5,16.4c0.2,0.1,3.7-5.8,5.7-9
		c11.3-17.8,25.8-27.9,26-26.9c0.3,1.3-22.6,23.8-22.2,25.3C244.8,43.6,270.8,17.4,271.9,20.4z"/>
	<path class="st0" d="M222.4,152.7c2.3-0.8,6.1-2.1,8.7-4.8c1-1,2.4-2.8,3.1-7.1c13.8,10.8,32.1,13.2,32.9,13.3
		c7,0.9,11.2-0.1,11.9,1.8c1.2,3.1-8.4,9.5-11.6,11.7c-2,1.3-3.6,2.4-5.9,3.5c-6.2,2.8-11.7,2.8-13.7,2.8c0,0-14.8-0.1-28-12.8
		c-1.3-1.3-2.8-3.1-5.8-6.7C217.1,154.1,219.7,153.6,222.4,152.7z"/>
	<path class="st1" d="M231.5,153c-0.1-0.2-0.2-0.4-0.1-0.6c0.4-0.5,3.1,1.3,7.9,2.1c0.5,0.1,1,0.2,1.5,0.2c1.4,0.2,1.6,0.1,3.3,0.3
		c0.1,0,0.1,0,0.2,0c0.2,0,0.4,0,0.7,0.1c3.9,0.4,7.4,0.9,7.5,1.7c0,0.6-1.1,1.2-2.4,1.7c-1.9,0.8-4.2,1.4-4.2,1.6
		c0,0.1,2.1-0.5,3.7-0.9c0.2-0.1,0.4-0.1,0.6-0.2c2.1-0.5,4.2-0.7,6.3-0.7c5.9,0,10.4,1.7,10.3,2.1c0,0.1-0.3,0.1-0.7,0.2
		c-2.2,0.1-9-0.6-12.1-0.6c-1.1,0-1.7,0.1-1.7,0.2c-0.2,0.9,16.2,2.5,16,4.3c-0.1,0.9-3.9,2-8.8,2.1c-3,0.1-6.5-0.2-9.7-1.2
		c-5.8-1.6-9.6-4.9-14.8-9.4C234.5,156.1,232.1,154.1,231.5,153z"/>
	<path class="st2" d="M181.9,170.4c-0.2,0.1-0.4,0.3-0.6,0.4c-1.4,0.9-2.9,1.1-4.3,1.3c-2.2,0.3-6.3,0.8-7.7-1.4c-1.3-2,0.1-5.3,2-7
		c1.7-1.6,3-1,5.8-2.1c4.2-1.8,6.9-5.5,8.2-7.6c0.4-0.7,0.7-1.3,0.8-1.5c1.8-3.9,0.8-5,2.4-6.9c2.7-3,7.3-2,12.4-1.9
		c4,0.1,16.6,0.2,22.2-5.6c6.3-6.5,3-19.4,0.6-28.9c-2.5-9.6-6.5-16.1-7.4-17.5c-2.4-3.7-7.5-11.6-17.5-17.4
		c-0.4-0.3-10.7-6-21.6-5.4c-2.6,0.1-4.9,0.6-6.9,2.1c-2.5,1.8-9.3,15.1-15.4,18c-3.7,1.6-7.9,2.1-8.2,1.3c-0.2-0.5,1.3-1.3,2.8-2.7
		c4-3.5,6.7-19.7,8.8-23.4c1.2-2.1,3-3.9,3.5-4.3c1.7-1.6,3.8-2.8,4-2.6c0.4,0.4-4,3.8-3.1,5.4c0.5,1,2.3,1,3.3,0.9
		c0.4,0,0.8,0,1.2,0c2.8-0.1,5-0.1,7.1-0.2c1.7-0.1,3.4-0.3,5.5-0.5c2.9-0.4,5.4,0,8.2,0.8c1.7,0.5,3.7,1.2,6,2
		c8.6,3,14.7,8.4,18.9,13l0.1,0.1c1.3,1.3,2.3,2.6,3.3,3.8c7.2,8.5,11.2,17.1,13.6,25.2c0,0.1,0,0.1,0,0.2
		c1.7,5.7,2.7,11.1,3.7,15.9c1.2,6.5,1.4,11.3,1.3,14.8c-0.1,0.9-0.2,1.7-0.3,2.5c-0.7,4.2-2.1,6.2-3.1,7.1c-2.6,2.7-6.4,4-8.7,4.8
		c-2.7,1-5.2,1.3-8.5,1.6c-1.8,0.1-4,0.2-6.4,0.3c-0.3,0-0.7,0-1,0c-6.7,0.2-6.7-0.3-9.3,0.4c-0.6,0.2-1.6,0.4-2.9,1
		c-2.7,1-6.3,2.9-8.5,6.6c-0.2,0.4-0.4,0.7-0.6,1.1C183.9,166.4,184,168.7,181.9,170.4z"/>
</g>
<g id="XMLID_3_">
	<path class="st0" d="M180.7,121.4c0-3,0.3-6.6,1.1-10.8c2.2-11.4,6.9-16.3,5.7-18.5c-1.3-2.1-6.3,0.6-10.3,2.8
		c-6.1,3.3-12.5,6.7-17.4,15.1c-3.7,6.3-15.3,6.3-18.9,0c-4.9-8.4-11.3-11.8-17.4-15.1c-3.9-2.1-9-4.8-10.3-2.8
		c-1.3,2.2,3.4,7.1,5.7,18.5c1.1,5.5,1.1,10,1.1,13.5c3.4,4,5.2,8.1,4.1,9.2c-0.7,0.8-2.4,0.1-4.5-1.4c0,0.1,0,0.1,0,0.2
		c-0.1,2.4-0.6,4.8-1.3,7.1c0,0.1-0.1,0.3-0.1,0.4c-0.6,2.5-1.1,4.4-1.3,6.1c-2.8,18.7,22.6,48.8,33.6,47.6l0,0l0,0h0.1
		c10.9,1.2,36.4-28.9,33.6-47.6c0-0.2-0.1-0.5-0.1-0.7c-0.1-0.1-0.2-0.2-0.3-0.3c-0.1,0.1-0.2,0.2-0.3,0.3c-3,3.4-6,5.4-6.6,4.6
		c-0.7-0.8,1.1-4.2,4-7.6c0.6-0.7,1.2-1.3,1.7-1.7l0,0c0-0.2,0.1-0.5,0.3-0.7c-0.7-3.2-1.4-7.1-1.6-12.2c-4.7,5-8.6,8.2-9.1,7.5
		C170.9,134,174.9,128.1,180.7,121.4z"/>
	<path class="st3" d="M145.4,183.4c-0.1-0.1-0.2-0.2-0.2-0.3c-3.8-5.3-8.7-8.8-11.9-8.8l6.9,13.6l7.2,3.8l0,0l2.7,1.4l0,0l0,0l0,0
		h0.1l0,0l0,0l0,0l0,0l2.7-1.4l0,0l7.2-3.8l6.8-13.6c-3.4,0-8.1,3.6-11.9,8.8c-0.1,0.1-0.2,0.2-0.2,0.3c-2.2,3.2-3.9,6.5-4.7,9.6
		l0,0l0,0C149.4,190.1,147.7,186.6,145.4,183.4L145.4,183.4z"/>
</g>
<g id="XMLID_1_">
	<path class="st2" d="M188,83.9c0.6,3.8,0.5,7.3-0.4,10.3c-2,6.8-8,11.6-16.6,18.6c-8.4,6.7-13.8,11.1-21.2,11.1
		c-7.3,0-12.5-4.3-22.1-12.3c-9.5-7.9-14.2-11.8-16-17.2c-1-3.1-1.1-6.7-0.4-10.7c2.6,1.5,5.7,2.4,8.9,2.4c9.9,0,17.9-8,17.9-17.9
		c0-5.8-2.7-10.9-6.9-14.1c5.4-3.6,11.6-5.7,18.5-5.7c6.9,0,13.4,2.3,18.8,6c-4,3.3-6.5,8.3-6.5,13.8c0,9.9,8,17.9,17.9,17.9
		C182.7,85.9,185.5,85.2,188,83.9z M179.8,90.3c0.1-0.8-3.4-2-6.9-2c-1.1,0-7.9,0.1-11.8,5.7c-1.6,2.4-2.1,4.8-2.3,6.2
		c2.3-2.7,5.8-5.9,10.7-7.6C174.8,90.5,179.7,91.2,179.8,90.3z M140.2,100.2c-0.2-1.3-0.6-3.8-2.3-6.2c-3.9-5.6-10.8-5.7-11.8-5.7
		c-3.5,0-6.9,1.3-6.9,2c0.1,0.9,4.9,0.3,10.4,2.2C134.4,94.3,137.8,97.4,140.2,100.2z"/>
	<path class="st4" d="M149,70.4c0,1.6-1.8,3.6-3.4,3.4c-3.6-0.3-6.3-11.1-5.1-11.6c0.3-0.2,0.6,0.4,2.6,2.3
		C147.1,68.4,149,68.9,149,70.4z"/>
	<path class="st4" d="M160.2,62.2c1.2,0.6-1.5,11.3-5.1,11.6c-1.5,0.1-3.5-1.8-3.4-3.4c0-1.5,1.8-2,6-6
		C159.5,62.7,159.9,62.1,160.2,62.2z"/>
	<path class="st4" d="M150.4,57.1c1.9,0,4.8,7,2.3,9.3c-1.3,1.2-3.7,1.2-4.8,0C145.4,64.1,148.5,57.1,150.4,57.1z"/>
</g>
</svg>
